<mxfile host="app.diagrams.net" agent="Mozilla/5.0 (Windows NT 10.0; Win64; x64) AppleWebKit/537.36 (KHTML, like Gecko) Chrome/135.0.0.0 Safari/537.36" version="26.2.14">
  <diagram name="Page-1" id="2cc2dc42-3aac-f2a9-1cec-7a8b7cbee084">
    <mxGraphModel dx="1158" dy="638" grid="1" gridSize="10" guides="1" tooltips="1" connect="1" arrows="1" fold="1" page="1" pageScale="1" pageWidth="1560" pageHeight="1169" background="#ffffff" math="0" shadow="0">
      <root>
        <mxCell id="0" />
        <mxCell id="1" parent="0" />
        <mxCell id="B_T4yHWhb3k_PPkQXvsV-2" value="IFTS  - TSDS " style="text;spacingTop=-5;fontSize=18;fontStyle=0;fontFamily=Inter;fontSource=https%3A%2F%2Ffonts.googleapis.com%2Fcss%3Ffamily%3DInter;" vertex="1" parent="1">
          <mxGeometry x="70" y="23" width="230" height="20" as="geometry" />
        </mxCell>
        <mxCell id="B_T4yHWhb3k_PPkQXvsV-3" value="" style="line;strokeWidth=1" vertex="1" parent="1">
          <mxGeometry y="50" width="1560" height="10" as="geometry" />
        </mxCell>
        <mxCell id="B_T4yHWhb3k_PPkQXvsV-4" value="" style="verticalLabelPosition=bottom;verticalAlign=top;strokeWidth=1;shape=mxgraph.mockup.graphics.iconGrid;strokeColor=#CCCCCC;gridSize=1,1;fontFamily=Inter;fontSource=https%3A%2F%2Ffonts.googleapis.com%2Fcss%3Ffamily%3DInter;" vertex="1" parent="1">
          <mxGeometry x="20" y="10" width="40" height="35" as="geometry" />
        </mxCell>
        <mxCell id="B_T4yHWhb3k_PPkQXvsV-5" value="Blog &#xa;Logo" style="text;spacingTop=-5;align=center;fontFamily=Inter;fontSource=https%3A%2F%2Ffonts.googleapis.com%2Fcss%3Ffamily%3DInter;" vertex="1" parent="1">
          <mxGeometry x="20" y="10" width="40" height="40" as="geometry" />
        </mxCell>
        <mxCell id="B_T4yHWhb3k_PPkQXvsV-7" value="" style="line;strokeWidth=1" vertex="1" parent="1">
          <mxGeometry y="76" width="1560" height="10" as="geometry" />
        </mxCell>
        <mxCell id="B_T4yHWhb3k_PPkQXvsV-12" value="" style="group" vertex="1" connectable="0" parent="1">
          <mxGeometry x="20" y="60" width="414.00333333333333" height="20" as="geometry" />
        </mxCell>
        <mxCell id="B_T4yHWhb3k_PPkQXvsV-13" value="" style="group;flipH=0;fontFamily=Inter;fontSource=https%3A%2F%2Ffonts.googleapis.com%2Fcss%3Ffamily%3DInter;" vertex="1" connectable="0" parent="B_T4yHWhb3k_PPkQXvsV-12">
          <mxGeometry width="350" height="20" as="geometry" />
        </mxCell>
        <mxCell id="B_T4yHWhb3k_PPkQXvsV-14" value="Sobre mí" style="text;spacingTop=-5;fontFamily=Inter;fontSource=https%3A%2F%2Ffonts.googleapis.com%2Fcss%3Ffamily%3DInter;" vertex="1" parent="B_T4yHWhb3k_PPkQXvsV-13">
          <mxGeometry x="277.6666666666667" width="70" height="20" as="geometry" />
        </mxCell>
        <mxCell id="B_T4yHWhb3k_PPkQXvsV-15" value="Portfolio" style="text;spacingTop=-5;fontFamily=Inter;fontSource=https%3A%2F%2Ffonts.googleapis.com%2Fcss%3Ffamily%3DInter;" vertex="1" parent="B_T4yHWhb3k_PPkQXvsV-13">
          <mxGeometry x="207.66351351351352" width="47.74189189189189" height="20" as="geometry" />
        </mxCell>
        <mxCell id="B_T4yHWhb3k_PPkQXvsV-16" value="" style="group;fontFamily=Inter;fontSource=https%3A%2F%2Ffonts.googleapis.com%2Fcss%3Ffamily%3DInter;" vertex="1" connectable="0" parent="B_T4yHWhb3k_PPkQXvsV-13">
          <mxGeometry width="198.33333333333334" height="20" as="geometry" />
        </mxCell>
        <mxCell id="B_T4yHWhb3k_PPkQXvsV-17" value="Home" style="text;spacingTop=-5;fontFamily=Inter;fontSource=https%3A%2F%2Ffonts.googleapis.com%2Fcss%3Ffamily%3DInter;" vertex="1" parent="B_T4yHWhb3k_PPkQXvsV-16">
          <mxGeometry width="35" height="20" as="geometry" />
        </mxCell>
        <mxCell id="B_T4yHWhb3k_PPkQXvsV-18" value="Materias" style="text;spacingTop=-5;fontFamily=Inter;fontSource=https%3A%2F%2Ffonts.googleapis.com%2Fcss%3Ffamily%3DInter;" vertex="1" parent="B_T4yHWhb3k_PPkQXvsV-16">
          <mxGeometry x="128.33648648648648" width="51.39324324324324" height="20" as="geometry" />
        </mxCell>
        <mxCell id="B_T4yHWhb3k_PPkQXvsV-19" value="Apuntes" style="text;spacingTop=-5;fontFamily=Inter;fontSource=https%3A%2F%2Ffonts.googleapis.com%2Fcss%3Ffamily%3DInter;" vertex="1" parent="B_T4yHWhb3k_PPkQXvsV-16">
          <mxGeometry x="56" width="48.05405405405405" height="20" as="geometry" />
        </mxCell>
        <mxCell id="B_T4yHWhb3k_PPkQXvsV-20" value="Contacto" style="text;spacingTop=-5;fontFamily=Inter;fontSource=https%3A%2F%2Ffonts.googleapis.com%2Fcss%3Ffamily%3DInter;" vertex="1" parent="B_T4yHWhb3k_PPkQXvsV-12">
          <mxGeometry x="340.00333333333333" width="74" height="20" as="geometry" />
        </mxCell>
        <mxCell id="B_T4yHWhb3k_PPkQXvsV-27" value="" style="verticalLabelPosition=bottom;verticalAlign=top;strokeWidth=1;shape=mxgraph.mockup.graphics.iconGrid;strokeColor=#CCCCCC;gridSize=1,1;fontSize=18;" vertex="1" parent="1">
          <mxGeometry x="1040" y="119" width="439" height="281" as="geometry" />
        </mxCell>
        <mxCell id="B_T4yHWhb3k_PPkQXvsV-29" value="" style="verticalLabelPosition=bottom;verticalAlign=top;strokeWidth=1;shape=mxgraph.mockup.graphics.iconGrid;strokeColor=#CCCCCC;gridSize=1,1;fontSize=18;" vertex="1" parent="1">
          <mxGeometry x="80" y="119" width="440" height="281" as="geometry" />
        </mxCell>
        <mxCell id="B_T4yHWhb3k_PPkQXvsV-30" value="" style="verticalLabelPosition=bottom;verticalAlign=top;strokeWidth=1;shape=mxgraph.mockup.graphics.iconGrid;strokeColor=#CCCCCC;gridSize=1,1;fontSize=18;" vertex="1" parent="1">
          <mxGeometry x="560" y="119" width="440" height="281" as="geometry" />
        </mxCell>
      </root>
    </mxGraphModel>
  </diagram>
</mxfile>
